<svg width="43" height="54" viewBox="0 0 43 54" fill="none" xmlns="http://www.w3.org/2000/svg">
<g filter="url(#filter0_d_81:545)">
<path d="M21.037 11.9259C14.4437 11.9259 9.11108 17.2585 9.11108 23.8518C9.11108 32.7963 21.037 46 21.037 46C21.037 46 32.9629 32.7963 32.9629 23.8518C32.9629 17.2585 27.6303 11.9259 21.037 11.9259ZM21.037 28.1111C18.6859 28.1111 16.7778 26.2029 16.7778 23.8518C16.7778 21.5007 18.6859 19.5926 21.037 19.5926C23.3881 19.5926 25.2963 21.5007 25.2963 23.8518C25.2963 26.2029 23.3881 28.1111 21.037 28.1111Z" fill="#43456C"/>
</g>
<g filter="url(#filter1_d_81:545)">
<circle cx="21.463" cy="17.463" r="17.463" fill="#43456C"/>
</g>
<g clip-path="url(#clip0_81:545)">
<g filter="url(#filter2_d_81:545)">
<path d="M28.4031 10.4458C28.2035 9.81758 27.6448 9.37036 26.9862 9.37036H16.0108C15.3522 9.37036 14.8034 9.81758 14.5939 10.4458L12.5186 16.8241V25.3426C12.5186 25.9282 12.9676 26.4074 13.5163 26.4074H14.5141C15.0629 26.4074 15.5119 25.9282 15.5119 25.3426V24.2778H27.4851V25.3426C27.4851 25.9282 27.9341 26.4074 28.4829 26.4074H29.4807C30.0294 26.4074 30.4784 25.9282 30.4784 25.3426V16.8241L28.4031 10.4458ZM16.0108 21.0833C15.1826 21.0833 14.5141 20.3699 14.5141 19.4861C14.5141 18.6023 15.1826 17.8889 16.0108 17.8889C16.8389 17.8889 17.5074 18.6023 17.5074 19.4861C17.5074 20.3699 16.8389 21.0833 16.0108 21.0833ZM26.9862 21.0833C26.1581 21.0833 25.4896 20.3699 25.4896 19.4861C25.4896 18.6023 26.1581 17.8889 26.9862 17.8889C27.8144 17.8889 28.4829 18.6023 28.4829 19.4861C28.4829 20.3699 27.8144 21.0833 26.9862 21.0833ZM14.5141 15.7593L16.0108 10.9676H26.9862L28.4829 15.7593H14.5141Z" fill="white"/>
</g>
</g>
<defs>
<filter id="filter0_d_81:545" x="5.11108" y="11.9259" width="31.8518" height="42.0741" filterUnits="userSpaceOnUse" color-interpolation-filters="sRGB">
<feFlood flood-opacity="0" result="BackgroundImageFix"/>
<feColorMatrix in="SourceAlpha" type="matrix" values="0 0 0 0 0 0 0 0 0 0 0 0 0 0 0 0 0 0 127 0" result="hardAlpha"/>
<feOffset dy="4"/>
<feGaussianBlur stdDeviation="2"/>
<feComposite in2="hardAlpha" operator="out"/>
<feColorMatrix type="matrix" values="0 0 0 0 0 0 0 0 0 0 0 0 0 0 0 0 0 0 0.25 0"/>
<feBlend mode="normal" in2="BackgroundImageFix" result="effect1_dropShadow_81:545"/>
<feBlend mode="normal" in="SourceGraphic" in2="effect1_dropShadow_81:545" result="shape"/>
</filter>
<filter id="filter1_d_81:545" x="0" y="0" width="42.926" height="42.9259" filterUnits="userSpaceOnUse" color-interpolation-filters="sRGB">
<feFlood flood-opacity="0" result="BackgroundImageFix"/>
<feColorMatrix in="SourceAlpha" type="matrix" values="0 0 0 0 0 0 0 0 0 0 0 0 0 0 0 0 0 0 127 0" result="hardAlpha"/>
<feOffset dy="4"/>
<feGaussianBlur stdDeviation="2"/>
<feComposite in2="hardAlpha" operator="out"/>
<feColorMatrix type="matrix" values="0 0 0 0 0 0 0 0 0 0 0 0 0 0 0 0 0 0 0.25 0"/>
<feBlend mode="normal" in2="BackgroundImageFix" result="effect1_dropShadow_81:545"/>
<feBlend mode="normal" in="SourceGraphic" in2="effect1_dropShadow_81:545" result="shape"/>
</filter>
<filter id="filter2_d_81:545" x="8.51855" y="9.37036" width="25.96" height="25.037" filterUnits="userSpaceOnUse" color-interpolation-filters="sRGB">
<feFlood flood-opacity="0" result="BackgroundImageFix"/>
<feColorMatrix in="SourceAlpha" type="matrix" values="0 0 0 0 0 0 0 0 0 0 0 0 0 0 0 0 0 0 127 0" result="hardAlpha"/>
<feOffset dy="4"/>
<feGaussianBlur stdDeviation="2"/>
<feComposite in2="hardAlpha" operator="out"/>
<feColorMatrix type="matrix" values="0 0 0 0 0 0 0 0 0 0 0 0 0 0 0 0 0 0 0.25 0"/>
<feBlend mode="normal" in2="BackgroundImageFix" result="effect1_dropShadow_81:545"/>
<feBlend mode="normal" in="SourceGraphic" in2="effect1_dropShadow_81:545" result="shape"/>
</filter>
<clipPath id="clip0_81:545">
<rect width="19.5926" height="20.4444" fill="white" transform="translate(11.6667 7.66669)"/>
</clipPath>
</defs>
</svg>
