<svg width="259" height="161" viewBox="0 0 259 161" fill="none" xmlns="http://www.w3.org/2000/svg">
<ellipse cx="129.275" cy="80.0547" rx="143.857" ry="9.38291" transform="rotate(-30 129.275 80.0547)" fill="#43456C"/>
<ellipse cx="124.414" cy="75.7636" rx="124.049" ry="43.7156" transform="rotate(-179.515 124.414 75.7636)" fill="#F9D9D4"/>
<path d="M77.04 92.4C74.88 92.4 72.8533 91.9867 70.96 91.16C69.0933 90.3333 67.44 89.1867 66 87.72C64.5867 86.2267 63.48 84.52 62.68 82.6C61.88 80.6533 61.48 78.5733 61.48 76.36C61.48 74.1733 61.8667 72.12 62.64 70.2C63.44 68.2533 64.5467 66.5467 65.96 65.08C67.4 63.6133 69.0533 62.4667 70.92 61.64C72.8133 60.7867 74.8533 60.36 77.04 60.36C78.96 60.36 80.7067 60.64 82.28 61.2C83.8533 61.76 85.3733 62.6533 86.84 63.88C87.1867 64.1467 87.3333 64.4933 87.28 64.92C87.2267 65.32 87.0267 65.6 86.68 65.76C86.6 66.08 86.3467 66.28 85.92 66.36C85.52 66.44 85.12 66.32 84.72 66C83.68 65.0933 82.5467 64.4267 81.32 64C80.0933 63.5467 78.6667 63.32 77.04 63.32C75.3067 63.32 73.68 63.6667 72.16 64.36C70.6667 65.0533 69.3467 66 68.2 67.2C67.0533 68.4 66.1467 69.7867 65.48 71.36C64.84 72.9333 64.52 74.6 64.52 76.36C64.52 78.1733 64.84 79.8667 65.48 81.44C66.1467 83.0133 67.0533 84.4 68.2 85.6C69.3467 86.8 70.6667 87.7467 72.16 88.44C73.68 89.1067 75.3067 89.44 77.04 89.44C79.92 89.44 82.5467 88.5067 84.92 86.64C85.4 86.2667 85.9067 86.2133 86.44 86.48C87 86.7467 87.28 87.2 87.28 87.84C87.28 88.2667 87.1333 88.64 86.84 88.96C85.48 90.2133 83.96 91.1067 82.28 91.64C80.6 92.1467 78.8533 92.4 77.04 92.4ZM101.498 92.2C99.4445 92.2 97.6045 91.72 95.9778 90.76C94.3511 89.7733 93.0578 88.44 92.0978 86.76C91.1645 85.08 90.6978 83.1867 90.6978 81.08C90.6978 78.9467 91.1778 77.04 92.1378 75.36C93.1245 73.68 94.4578 72.36 96.1378 71.4C97.8178 70.4133 99.7111 69.92 101.818 69.92C103.924 69.92 105.804 70.4133 107.458 71.4C109.138 72.36 110.458 73.68 111.418 75.36C112.404 77.04 112.911 78.9467 112.938 81.08V90.48C112.938 90.9333 112.791 91.3067 112.498 91.6C112.204 91.8667 111.831 92 111.378 92C110.924 92 110.551 91.8667 110.258 91.6C109.964 91.3067 109.818 90.9333 109.818 90.48V88.04C108.911 89.32 107.738 90.3333 106.298 91.08C104.858 91.8267 103.258 92.2 101.498 92.2ZM101.818 89.4C103.364 89.4 104.738 89.04 105.938 88.32C107.164 87.6 108.124 86.6133 108.818 85.36C109.538 84.08 109.898 82.6533 109.898 81.08C109.898 79.48 109.538 78.0533 108.818 76.8C108.124 75.5467 107.164 74.56 105.938 73.84C104.738 73.0933 103.364 72.72 101.818 72.72C100.298 72.72 98.9245 73.0933 97.6978 73.84C96.4711 74.56 95.4978 75.5467 94.7778 76.8C94.0578 78.0533 93.6978 79.48 93.6978 81.08C93.6978 82.6533 94.0578 84.08 94.7778 85.36C95.4978 86.6133 96.4711 87.6 97.6978 88.32C98.9245 89.04 100.298 89.4 101.818 89.4ZM120.448 92C119.435 92 118.928 91.4933 118.928 90.48V71.64C118.928 70.6267 119.435 70.12 120.448 70.12C121.461 70.12 121.968 70.6267 121.968 71.64V73.36C122.768 72.2933 123.755 71.4533 124.928 70.84C126.101 70.2 127.395 69.88 128.808 69.88C130.035 69.88 130.981 70.0533 131.648 70.4C132.315 70.7467 132.568 71.2533 132.408 71.92C132.275 72.5333 131.955 72.8533 131.448 72.88C130.968 72.88 130.395 72.8533 129.728 72.8C128.235 72.6667 126.901 72.8267 125.728 73.28C124.581 73.7067 123.661 74.3733 122.968 75.28C122.301 76.1867 121.968 77.2667 121.968 78.52V90.48C121.968 91.4933 121.461 92 120.448 92ZM151.688 92.4C149.528 92.4 147.502 91.9867 145.608 91.16C143.742 90.3333 142.088 89.1867 140.648 87.72C139.235 86.2267 138.128 84.52 137.328 82.6C136.528 80.6533 136.128 78.5733 136.128 76.36C136.128 74.1733 136.515 72.12 137.288 70.2C138.088 68.2533 139.195 66.5467 140.608 65.08C142.048 63.6133 143.702 62.4667 145.568 61.64C147.462 60.7867 149.502 60.36 151.688 60.36C153.608 60.36 155.355 60.64 156.928 61.2C158.502 61.76 160.022 62.6533 161.488 63.88C161.835 64.1467 161.982 64.4933 161.928 64.92C161.875 65.32 161.675 65.6 161.328 65.76C161.248 66.08 160.995 66.2933 160.568 66.4C160.168 66.48 159.768 66.3467 159.368 66C158.328 65.0933 157.195 64.4267 155.968 64C154.742 63.5467 153.315 63.32 151.688 63.32C149.955 63.32 148.328 63.6667 146.808 64.36C145.315 65.0533 143.995 66 142.848 67.2C141.702 68.4 140.795 69.7867 140.128 71.36C139.488 72.9333 139.168 74.6 139.168 76.36C139.168 78.1733 139.488 79.8667 140.128 81.44C140.795 83.0133 141.702 84.4 142.848 85.6C143.995 86.8 145.315 87.7467 146.808 88.44C148.328 89.1067 149.955 89.44 151.688 89.44C154.302 89.44 156.702 88.68 158.888 87.16V79.16H152.648C152.195 79.16 151.822 79.0267 151.528 78.76C151.235 78.4933 151.088 78.16 151.088 77.76C151.088 77.36 151.235 77.04 151.528 76.8C151.822 76.5333 152.195 76.4 152.648 76.4H160.368C160.822 76.4 161.195 76.5467 161.488 76.84C161.782 77.1067 161.928 77.4667 161.928 77.92V87.84C161.928 88.0533 161.902 88.2533 161.848 88.44C161.795 88.6 161.675 88.7733 161.488 88.96C160.128 90.2133 158.608 91.1067 156.928 91.64C155.248 92.1467 153.502 92.4 151.688 92.4ZM176.466 92.2C174.333 92.2 172.426 91.72 170.746 90.76C169.066 89.8 167.746 88.48 166.786 86.8C165.826 85.12 165.346 83.2133 165.346 81.08C165.346 78.92 165.826 77 166.786 75.32C167.746 73.64 169.066 72.32 170.746 71.36C172.426 70.4 174.333 69.92 176.466 69.92C178.6 69.92 180.493 70.4 182.146 71.36C183.826 72.32 185.146 73.64 186.106 75.32C187.066 77 187.56 78.92 187.586 81.08C187.586 83.2133 187.093 85.12 186.106 86.8C185.146 88.48 183.826 89.8 182.146 90.76C180.493 91.72 178.6 92.2 176.466 92.2ZM176.466 89.4C178.013 89.4 179.4 89.04 180.626 88.32C181.853 87.6 182.813 86.6133 183.506 85.36C184.2 84.1067 184.546 82.68 184.546 81.08C184.546 79.48 184.2 78.0533 183.506 76.8C182.813 75.52 181.853 74.52 180.626 73.8C179.4 73.08 178.013 72.72 176.466 72.72C174.92 72.72 173.533 73.08 172.306 73.8C171.08 74.52 170.106 75.52 169.386 76.8C168.693 78.0533 168.346 79.48 168.346 81.08C168.346 82.68 168.693 84.1067 169.386 85.36C170.106 86.6133 171.08 87.6 172.306 88.32C173.533 89.04 174.92 89.4 176.466 89.4Z" fill="black"/>
</svg>
