<svg width="273" height="56" viewBox="0 0 273 56" fill="none" xmlns="http://www.w3.org/2000/svg">
<rect width="273" height="56" rx="12" fill="white"/>
<rect x="1" y="1" width="271" height="54" rx="11" stroke="#E1E1E1" stroke-opacity="0.2" stroke-width="2"/>
<path d="M59.0005 20.0272C60.8632 19.9986 62.6646 20.6925 64.0267 21.9635L67.6955 18.376C65.3417 16.1704 62.2259 14.961 59.0005 15.001C56.5905 15.0004 54.228 15.6703 52.177 16.9356C50.126 18.201 48.4674 20.0119 47.3867 22.166L51.5905 25.4297C52.1045 23.8668 53.0961 22.5046 54.4256 21.5353C55.755 20.5661 57.3552 20.0386 59.0005 20.0272Z" fill="#E43E2B"/>
<path d="M71.48 28.2901C71.4953 27.3964 71.403 26.5042 71.205 25.6326H59V30.4576H66.165C66.0291 31.3035 65.7235 32.1132 65.2666 32.838C64.8097 33.5628 64.2109 34.1877 63.5062 34.6751L67.6087 37.8526C68.8873 36.6182 69.8928 35.1293 70.5602 33.4822C71.2277 31.8351 71.5423 30.0663 71.4837 28.2901H71.48Z" fill="#3B7DED"/>
<path d="M51.6054 30.5716C51.3212 29.744 51.1747 28.8754 51.1717 28.0003C51.1769 27.1267 51.3181 26.2592 51.5904 25.4291L47.3867 22.1653C46.4749 23.9755 46 25.9741 46 28.001C46 30.0278 46.4749 32.0264 47.3867 33.8366L51.6054 30.5716Z" fill="#F0B501"/>
<path d="M59.0004 41.0008C62.167 41.0903 65.2476 39.9635 67.6091 37.852L63.5066 34.6745C62.1764 35.5663 60.6011 36.0207 59.0004 35.9745C57.3565 35.9647 55.7575 35.4376 54.4301 34.4679C53.1028 33.4982 52.1144 32.1351 51.6054 30.572L47.4016 33.837C48.4794 35.9901 50.1352 37.8006 52.1838 39.0659C54.2323 40.3311 56.5926 41.0011 59.0004 41.0008Z" fill="#2BA24C"/>
<path d="M99.8984 32.7734H105.289V34H98.3906V22.625H99.8984V32.7734ZM106.391 29.6953C106.391 28.8672 106.552 28.1224 106.875 27.4609C107.203 26.7995 107.656 26.2891 108.234 25.9297C108.818 25.5703 109.482 25.3906 110.227 25.3906C111.378 25.3906 112.307 25.7891 113.016 26.5859C113.729 27.3828 114.086 28.4427 114.086 29.7656V29.8672C114.086 30.6901 113.927 31.4297 113.609 32.0859C113.297 32.737 112.846 33.2448 112.258 33.6094C111.674 33.974 111.003 34.1562 110.242 34.1562C109.096 34.1562 108.167 33.7578 107.453 32.9609C106.745 32.1641 106.391 31.1094 106.391 29.7969V29.6953ZM107.844 29.8672C107.844 30.8047 108.06 31.5573 108.492 32.125C108.93 32.6927 109.513 32.9766 110.242 32.9766C110.977 32.9766 111.56 32.6901 111.992 32.1172C112.424 31.5391 112.641 30.7318 112.641 29.6953C112.641 28.7682 112.419 28.0182 111.977 27.4453C111.539 26.8672 110.956 26.5781 110.227 26.5781C109.513 26.5781 108.938 26.862 108.5 27.4297C108.062 27.9974 107.844 28.8099 107.844 29.8672ZM115.555 29.7031C115.555 28.3854 115.859 27.3385 116.469 26.5625C117.078 25.7812 117.885 25.3906 118.891 25.3906C119.922 25.3906 120.727 25.7552 121.305 26.4844L121.375 25.5469H122.695V33.7969C122.695 34.8906 122.37 35.7526 121.719 36.3828C121.073 37.013 120.203 37.3281 119.109 37.3281C118.5 37.3281 117.904 37.1979 117.32 36.9375C116.737 36.6771 116.292 36.3203 115.984 35.8672L116.734 35C117.354 35.7656 118.112 36.1484 119.008 36.1484C119.711 36.1484 120.258 35.9505 120.648 35.5547C121.044 35.1589 121.242 34.6016 121.242 33.8828V33.1562C120.664 33.8229 119.875 34.1562 118.875 34.1562C117.885 34.1562 117.083 33.7578 116.469 32.9609C115.859 32.1641 115.555 31.0781 115.555 29.7031ZM117.008 29.8672C117.008 30.8203 117.203 31.5703 117.594 32.1172C117.984 32.6589 118.531 32.9297 119.234 32.9297C120.146 32.9297 120.815 32.5156 121.242 31.6875V27.8281C120.799 27.0208 120.135 26.6172 119.25 26.6172C118.547 26.6172 117.997 26.8906 117.602 27.4375C117.206 27.9844 117.008 28.7943 117.008 29.8672ZM126.453 34H125.008V25.5469H126.453V34ZM124.891 23.3047C124.891 23.0703 124.961 22.8724 125.102 22.7109C125.247 22.5495 125.461 22.4688 125.742 22.4688C126.023 22.4688 126.237 22.5495 126.383 22.7109C126.529 22.8724 126.602 23.0703 126.602 23.3047C126.602 23.5391 126.529 23.7344 126.383 23.8906C126.237 24.0469 126.023 24.125 125.742 24.125C125.461 24.125 125.247 24.0469 125.102 23.8906C124.961 23.7344 124.891 23.5391 124.891 23.3047ZM130.141 25.5469L130.188 26.6094C130.833 25.7969 131.677 25.3906 132.719 25.3906C134.505 25.3906 135.406 26.3984 135.422 28.4141V34H133.977V28.4062C133.971 27.7969 133.831 27.3464 133.555 27.0547C133.284 26.763 132.859 26.6172 132.281 26.6172C131.812 26.6172 131.401 26.7422 131.047 26.9922C130.693 27.2422 130.417 27.5703 130.219 27.9766V34H128.773V25.5469H130.141ZM149.055 32.0078L150.68 25.5469H152.125L149.664 34H148.492L146.438 27.5938L144.438 34H143.266L140.812 25.5469H142.25L143.914 31.875L145.883 25.5469H147.047L149.055 32.0078ZM155.172 34H153.727V25.5469H155.172V34ZM153.609 23.3047C153.609 23.0703 153.68 22.8724 153.82 22.7109C153.966 22.5495 154.18 22.4688 154.461 22.4688C154.742 22.4688 154.956 22.5495 155.102 22.7109C155.247 22.8724 155.32 23.0703 155.32 23.3047C155.32 23.5391 155.247 23.7344 155.102 23.8906C154.956 24.0469 154.742 24.125 154.461 24.125C154.18 24.125 153.966 24.0469 153.82 23.8906C153.68 23.7344 153.609 23.5391 153.609 23.3047ZM159.453 23.5V25.5469H161.031V26.6641H159.453V31.9062C159.453 32.2448 159.523 32.5 159.664 32.6719C159.805 32.8385 160.044 32.9219 160.383 32.9219C160.549 32.9219 160.779 32.8906 161.07 32.8281V34C160.69 34.1042 160.32 34.1562 159.961 34.1562C159.315 34.1562 158.828 33.9609 158.5 33.5703C158.172 33.1797 158.008 32.625 158.008 31.9062V26.6641H156.469V25.5469H158.008V23.5H159.453ZM164.172 26.5703C164.812 25.7839 165.646 25.3906 166.672 25.3906C168.458 25.3906 169.359 26.3984 169.375 28.4141V34H167.93V28.4062C167.924 27.7969 167.784 27.3464 167.508 27.0547C167.237 26.763 166.812 26.6172 166.234 26.6172C165.766 26.6172 165.354 26.7422 165 26.9922C164.646 27.2422 164.37 27.5703 164.172 27.9766V34H162.727V22H164.172V26.5703ZM184.133 32.5078C183.747 33.0599 183.208 33.474 182.516 33.75C181.828 34.0208 181.026 34.1562 180.109 34.1562C179.182 34.1562 178.359 33.9401 177.641 33.5078C176.922 33.0703 176.365 32.4505 175.969 31.6484C175.578 30.8464 175.378 29.9167 175.367 28.8594V27.8672C175.367 26.1536 175.766 24.8255 176.562 23.8828C177.365 22.9401 178.49 22.4688 179.938 22.4688C181.125 22.4688 182.081 22.7734 182.805 23.3828C183.529 23.987 183.971 24.8464 184.133 25.9609H182.633C182.352 24.4557 181.456 23.7031 179.945 23.7031C178.94 23.7031 178.177 24.0573 177.656 24.7656C177.141 25.4688 176.88 26.4896 176.875 27.8281V28.7578C176.875 30.0339 177.167 31.0495 177.75 31.8047C178.333 32.5547 179.122 32.9297 180.117 32.9297C180.68 32.9297 181.172 32.8672 181.594 32.7422C182.016 32.6172 182.365 32.4062 182.641 32.1094V29.5547H180.008V28.3359H184.133V32.5078ZM186.031 29.6953C186.031 28.8672 186.193 28.1224 186.516 27.4609C186.844 26.7995 187.297 26.2891 187.875 25.9297C188.458 25.5703 189.122 25.3906 189.867 25.3906C191.018 25.3906 191.948 25.7891 192.656 26.5859C193.37 27.3828 193.727 28.4427 193.727 29.7656V29.8672C193.727 30.6901 193.568 31.4297 193.25 32.0859C192.938 32.737 192.487 33.2448 191.898 33.6094C191.315 33.974 190.643 34.1562 189.883 34.1562C188.737 34.1562 187.807 33.7578 187.094 32.9609C186.385 32.1641 186.031 31.1094 186.031 29.7969V29.6953ZM187.484 29.8672C187.484 30.8047 187.701 31.5573 188.133 32.125C188.57 32.6927 189.154 32.9766 189.883 32.9766C190.617 32.9766 191.201 32.6901 191.633 32.1172C192.065 31.5391 192.281 30.7318 192.281 29.6953C192.281 28.7682 192.06 28.0182 191.617 27.4453C191.18 26.8672 190.596 26.5781 189.867 26.5781C189.154 26.5781 188.578 26.862 188.141 27.4297C187.703 27.9974 187.484 28.8099 187.484 29.8672ZM195.156 29.6953C195.156 28.8672 195.318 28.1224 195.641 27.4609C195.969 26.7995 196.422 26.2891 197 25.9297C197.583 25.5703 198.247 25.3906 198.992 25.3906C200.143 25.3906 201.073 25.7891 201.781 26.5859C202.495 27.3828 202.852 28.4427 202.852 29.7656V29.8672C202.852 30.6901 202.693 31.4297 202.375 32.0859C202.062 32.737 201.612 33.2448 201.023 33.6094C200.44 33.974 199.768 34.1562 199.008 34.1562C197.862 34.1562 196.932 33.7578 196.219 32.9609C195.51 32.1641 195.156 31.1094 195.156 29.7969V29.6953ZM196.609 29.8672C196.609 30.8047 196.826 31.5573 197.258 32.125C197.695 32.6927 198.279 32.9766 199.008 32.9766C199.742 32.9766 200.326 32.6901 200.758 32.1172C201.19 31.5391 201.406 30.7318 201.406 29.6953C201.406 28.7682 201.185 28.0182 200.742 27.4453C200.305 26.8672 199.721 26.5781 198.992 26.5781C198.279 26.5781 197.703 26.862 197.266 27.4297C196.828 27.9974 196.609 28.8099 196.609 29.8672ZM204.32 29.7031C204.32 28.3854 204.625 27.3385 205.234 26.5625C205.844 25.7812 206.651 25.3906 207.656 25.3906C208.688 25.3906 209.492 25.7552 210.07 26.4844L210.141 25.5469H211.461V33.7969C211.461 34.8906 211.135 35.7526 210.484 36.3828C209.839 37.013 208.969 37.3281 207.875 37.3281C207.266 37.3281 206.669 37.1979 206.086 36.9375C205.503 36.6771 205.057 36.3203 204.75 35.8672L205.5 35C206.12 35.7656 206.878 36.1484 207.773 36.1484C208.477 36.1484 209.023 35.9505 209.414 35.5547C209.81 35.1589 210.008 34.6016 210.008 33.8828V33.1562C209.43 33.8229 208.641 34.1562 207.641 34.1562C206.651 34.1562 205.849 33.7578 205.234 32.9609C204.625 32.1641 204.32 31.0781 204.32 29.7031ZM205.773 29.8672C205.773 30.8203 205.969 31.5703 206.359 32.1172C206.75 32.6589 207.297 32.9297 208 32.9297C208.911 32.9297 209.581 32.5156 210.008 31.6875V27.8281C209.565 27.0208 208.901 26.6172 208.016 26.6172C207.312 26.6172 206.763 26.8906 206.367 27.4375C205.971 27.9844 205.773 28.7943 205.773 29.8672ZM215.219 34H213.773V22H215.219V34ZM221.047 34.1562C219.901 34.1562 218.969 33.7812 218.25 33.0312C217.531 32.276 217.172 31.2682 217.172 30.0078V29.7422C217.172 28.9036 217.331 28.1562 217.648 27.5C217.971 26.8385 218.419 26.3229 218.992 25.9531C219.57 25.5781 220.195 25.3906 220.867 25.3906C221.966 25.3906 222.82 25.7526 223.43 26.4766C224.039 27.2005 224.344 28.237 224.344 29.5859V30.1875H218.617C218.638 31.0208 218.88 31.6953 219.344 32.2109C219.812 32.7214 220.406 32.9766 221.125 32.9766C221.635 32.9766 222.068 32.8724 222.422 32.6641C222.776 32.4557 223.086 32.1797 223.352 31.8359L224.234 32.5234C223.526 33.612 222.464 34.1562 221.047 34.1562ZM220.867 26.5781C220.284 26.5781 219.794 26.7917 219.398 27.2188C219.003 27.6406 218.758 28.2344 218.664 29H222.898V28.8906C222.857 28.1562 222.659 27.5885 222.305 27.1875C221.951 26.7812 221.471 26.5781 220.867 26.5781Z" fill="black"/>
</svg>
